<mxfile host="app.diagrams.net" modified="2024-02-26T17:02:02.820Z" agent="Mozilla/5.0 (Macintosh; Intel Mac OS X 10_15_7) AppleWebKit/537.36 (KHTML, like Gecko) Chrome/122.0.0.0 Safari/537.36" etag="WeI6QlQl7IJih2oZZrGD" version="23.1.6" type="device">
  <diagram name="PÃ¡gina-1" id="ilaDtFOMwBIhNoafnFEa">
    <mxGraphModel dx="1434" dy="761" grid="1" gridSize="10" guides="1" tooltips="1" connect="1" arrows="1" fold="1" page="1" pageScale="1" pageWidth="827" pageHeight="1169" math="0" shadow="0">
      <root>
        <mxCell id="0" />
        <mxCell id="1" parent="0" />
        <mxCell id="Kbpvy3Zbf72ujOTDy0Ky-1" value="" style="ellipse;whiteSpace=wrap;html=1;fillColor=#f8cecc;strokeColor=#b85450;" parent="1" vertex="1">
          <mxGeometry x="70" y="110" width="120" height="80" as="geometry" />
        </mxCell>
        <mxCell id="Kbpvy3Zbf72ujOTDy0Ky-2" value="" style="ellipse;whiteSpace=wrap;html=1;fillColor=#f8cecc;strokeColor=#b85450;" parent="1" vertex="1">
          <mxGeometry x="280" y="110" width="120" height="80" as="geometry" />
        </mxCell>
        <mxCell id="Kbpvy3Zbf72ujOTDy0Ky-3" value="" style="ellipse;whiteSpace=wrap;html=1;fillColor=#f8cecc;strokeColor=#b85450;" parent="1" vertex="1">
          <mxGeometry x="460" y="110" width="120" height="80" as="geometry" />
        </mxCell>
        <mxCell id="Kbpvy3Zbf72ujOTDy0Ky-4" value="" style="ellipse;whiteSpace=wrap;html=1;fillColor=#f8cecc;strokeColor=#b85450;" parent="1" vertex="1">
          <mxGeometry x="650" y="110" width="120" height="80" as="geometry" />
        </mxCell>
        <mxCell id="Kbpvy3Zbf72ujOTDy0Ky-5" value="" style="endArrow=classic;html=1;rounded=0;entryX=0;entryY=0.5;entryDx=0;entryDy=0;" parent="1" target="Kbpvy3Zbf72ujOTDy0Ky-3" edge="1">
          <mxGeometry width="50" height="50" relative="1" as="geometry">
            <mxPoint x="400" y="150" as="sourcePoint" />
            <mxPoint x="450" y="100" as="targetPoint" />
          </mxGeometry>
        </mxCell>
        <mxCell id="Kbpvy3Zbf72ujOTDy0Ky-7" value="" style="endArrow=classic;html=1;rounded=0;entryX=0;entryY=0.5;entryDx=0;entryDy=0;" parent="1" target="Kbpvy3Zbf72ujOTDy0Ky-2" edge="1">
          <mxGeometry width="50" height="50" relative="1" as="geometry">
            <mxPoint x="190" y="150" as="sourcePoint" />
            <mxPoint x="240" y="100" as="targetPoint" />
          </mxGeometry>
        </mxCell>
        <mxCell id="Kbpvy3Zbf72ujOTDy0Ky-8" value="" style="endArrow=classic;html=1;rounded=0;" parent="1" edge="1">
          <mxGeometry width="50" height="50" relative="1" as="geometry">
            <mxPoint x="580" y="149.5" as="sourcePoint" />
            <mxPoint x="650" y="149.5" as="targetPoint" />
          </mxGeometry>
        </mxCell>
        <mxCell id="Kbpvy3Zbf72ujOTDy0Ky-10" value="" style="endArrow=classic;html=1;rounded=0;entryX=0.5;entryY=0;entryDx=0;entryDy=0;" parent="1" edge="1">
          <mxGeometry width="50" height="50" relative="1" as="geometry">
            <mxPoint x="709.5" y="30" as="sourcePoint" />
            <mxPoint x="709.5" y="110" as="targetPoint" />
          </mxGeometry>
        </mxCell>
        <mxCell id="Kbpvy3Zbf72ujOTDy0Ky-11" value="d2618e0" style="text;html=1;align=center;verticalAlign=middle;whiteSpace=wrap;rounded=0;" parent="1" vertex="1">
          <mxGeometry x="90" y="210" width="60" height="30" as="geometry" />
        </mxCell>
        <mxCell id="Kbpvy3Zbf72ujOTDy0Ky-12" value="60e118e" style="text;html=1;align=center;verticalAlign=middle;whiteSpace=wrap;rounded=0;" parent="1" vertex="1">
          <mxGeometry x="310" y="200" width="60" height="30" as="geometry" />
        </mxCell>
        <mxCell id="Kbpvy3Zbf72ujOTDy0Ky-13" value="be0e9a2" style="text;html=1;align=center;verticalAlign=middle;whiteSpace=wrap;rounded=0;" parent="1" vertex="1">
          <mxGeometry x="490" y="200" width="60" height="30" as="geometry" />
        </mxCell>
        <mxCell id="Kbpvy3Zbf72ujOTDy0Ky-14" value="af1c4d3" style="text;html=1;align=center;verticalAlign=middle;whiteSpace=wrap;rounded=0;" parent="1" vertex="1">
          <mxGeometry x="680" y="200" width="60" height="30" as="geometry" />
        </mxCell>
        <mxCell id="Kbpvy3Zbf72ujOTDy0Ky-15" value="MAIN" style="text;html=1;align=center;verticalAlign=middle;whiteSpace=wrap;rounded=0;" parent="1" vertex="1">
          <mxGeometry y="135" width="60" height="30" as="geometry" />
        </mxCell>
        <mxCell id="Kbpvy3Zbf72ujOTDy0Ky-16" value="" style="ellipse;whiteSpace=wrap;html=1;fillColor=#f8cecc;strokeColor=#b85450;" parent="1" vertex="1">
          <mxGeometry x="84" y="320" width="120" height="80" as="geometry" />
        </mxCell>
        <mxCell id="Kbpvy3Zbf72ujOTDy0Ky-17" value="" style="ellipse;whiteSpace=wrap;html=1;fillColor=#f8cecc;strokeColor=#b85450;" parent="1" vertex="1">
          <mxGeometry x="294" y="320" width="120" height="80" as="geometry" />
        </mxCell>
        <mxCell id="Kbpvy3Zbf72ujOTDy0Ky-18" value="" style="endArrow=classic;html=1;rounded=0;entryX=0;entryY=0.5;entryDx=0;entryDy=0;" parent="1" target="Kbpvy3Zbf72ujOTDy0Ky-17" edge="1">
          <mxGeometry width="50" height="50" relative="1" as="geometry">
            <mxPoint x="204" y="360" as="sourcePoint" />
            <mxPoint x="254" y="310" as="targetPoint" />
          </mxGeometry>
        </mxCell>
        <mxCell id="Kbpvy3Zbf72ujOTDy0Ky-19" value="" style="endArrow=classic;html=1;rounded=0;entryX=0.5;entryY=0;entryDx=0;entryDy=0;" parent="1" edge="1">
          <mxGeometry width="50" height="50" relative="1" as="geometry">
            <mxPoint x="353.5" y="230" as="sourcePoint" />
            <mxPoint x="353.5" y="310" as="targetPoint" />
          </mxGeometry>
        </mxCell>
        <mxCell id="Kbpvy3Zbf72ujOTDy0Ky-20" value="d2618e0" style="text;html=1;align=center;verticalAlign=middle;whiteSpace=wrap;rounded=0;" parent="1" vertex="1">
          <mxGeometry x="104" y="420" width="60" height="30" as="geometry" />
        </mxCell>
        <mxCell id="Kbpvy3Zbf72ujOTDy0Ky-21" value="60e118e" style="text;html=1;align=center;verticalAlign=middle;whiteSpace=wrap;rounded=0;" parent="1" vertex="1">
          <mxGeometry x="324" y="410" width="60" height="30" as="geometry" />
        </mxCell>
        <mxCell id="Kbpvy3Zbf72ujOTDy0Ky-22" value="MAIN" style="text;html=1;align=center;verticalAlign=middle;whiteSpace=wrap;rounded=0;" parent="1" vertex="1">
          <mxGeometry x="10" y="345" width="60" height="30" as="geometry" />
        </mxCell>
      </root>
    </mxGraphModel>
  </diagram>
</mxfile>
